<svg width="51" height="52" viewBox="0 0 51 52" version="1.1" xmlns="http://www.w3.org/2000/svg" xmlns:xlink="http://www.w3.org/1999/xlink"><defs><path id="a" d="M.154 2.198h8.472V.476H.154z"/><path id="c" d="M.07 8.541h1.8V.008H.07z"/></defs><g transform="translate(0 1)" stroke="none" stroke-width="1" fill="none" fill-rule="evenodd"><circle stroke="#DEDEDE" stroke-width=".5" fill="#FFF" cx="25.5" cy="25" r="25"/><path d="M35.929 18.523h-20.86c-.557 0-1.009.483-1.009 1.08v13.814c0 .3.1.554.296.765a.94.94 0 0 0 .713.316h20.86c.557 0 1.009-.483 1.009-1.08V19.602c0-.299-.098-.553-.296-.764a.939.939 0 0 0-.713-.316zm-20.303 14.32h19.745V20.177H15.626v12.666z" fill="#F76260"/><g transform="translate(21.119 24.832)"><mask id="b" fill="#fff"><use xlink:href="#a"/></mask><path fill="#F76260" mask="url(#b)" d="M-1.258 4.638h11.295v-6.244H-1.258z"/></g><g transform="translate(24.405 22.074)"><mask id="d" fill="#fff"><use xlink:href="#c"/></mask><path fill="#F76260" mask="url(#d)" d="M-1.996 9.964h6.199V-1.414h-6.199z"/></g><path d="M20.533 18.553v-.603c0-1.512 1.288-2.737 2.875-2.737h4.2c1.589 0 2.876 1.225 2.876 2.737v.603" stroke="#F76260" stroke-width="1.5"/></g></svg>