<svg width="20" height="23" viewBox="0 0 20 23" xmlns="http://www.w3.org/2000/svg"><path d="M19.5 11.217V11c0-.037-.008-.072-.01-.109C19.365 5.122 16.22.5 10.002.5 3.995.5.672 5.089.517 10.829.511 10.885.5 10.94.5 11v5.5A1.5 1.5 0 0 0 2 18h2.5A1.5 1.5 0 0 0 6 16.5V11a1.5 1.5 0 0 0-1.5-1.5H2.09c.453-4.275 2.689-7.508 7.912-7.508 5.231 0 7.46 3.233 7.911 7.508H15.5A1.5 1.5 0 0 0 14 11v5.5a1.5 1.5 0 0 0 1.5 1.5H18a1.5 1.5 0 0 0 1.5-1.5v-5.23l.001-.024v-.029zm-17-.216H4a.5.5 0 0 1 .5.5V16a.5.5 0 0 1-.5.5H2.5A.5.5 0 0 1 2 16v-4.5a.5.5 0 0 1 .5-.5zM18 16a.5.5 0 0 1-.5.5H16a.5.5 0 0 1-.5-.5v-4.5a.5.5 0 0 1 .5-.5h1.5a.5.5 0 0 1 .5.5V16zm-1.409 2c-.372.698-.771 1.272-1.184 1.593-.639.498-1.57.381-2.277.37a1.957 1.957 0 0 0-1.887-1.463 1.965 1.965 0 0 0-1.961 1.968c0 1.088.878 1.97 1.961 1.97.767 0 1.423-.446 1.746-1.09.84.051 2.073-.05 3.024-.598.768-.443 1.447-1.499 2.028-2.75h-1.45zm-5.348 3.312a.84.84 0 0 1-.837-.844.84.84 0 0 1 .837-.844.84.84 0 0 1 .836.844.84.84 0 0 1-.836.844z" fill="#F76260" fill-rule="evenodd"/></svg>