<?xml version="1.0" encoding="UTF-8" standalone="no"?>
<svg width="51px" height="52px" viewBox="0 0 51 52" version="1.1" xmlns="http://www.w3.org/2000/svg" xmlns:xlink="http://www.w3.org/1999/xlink">
    <!-- Generator: Sketch 39.1 (31720) - http://www.bohemiancoding.com/sketch -->
    <title>Group 6</title>
    <desc>Created with Sketch.</desc>
    <defs>
        <polygon id="path-1" points="0.153880952 2.19824917 8.62554762 2.19824917 8.62554762 0.476057474 0.153880952 0.476057474"></polygon>
        <polygon id="path-3" points="0.0706428571 8.54145299 1.87066667 8.54145299 1.87066667 0.00827446363 0.0706428571 0.00827446363"></polygon>
    </defs>
    <g id="首页" stroke="none" stroke-width="1" fill="none" fill-rule="evenodd">
        <g id="扫一扫-copy-10" transform="translate(-162.000000, -64.000000)">
            <g id="Group-6" transform="translate(162.000000, 65.000000)">
                <circle id="Oval-5" stroke="#DEDEDE" stroke-width="0.5" fill="#FFFFFF" cx="25.5" cy="25" r="25"></circle>
                <g id="Page-1" transform="translate(14.000000, 15.000000)">
                    <path d="M21.9285994,3.52254949 L1.06924587,3.52254949 C0.511562203,3.52254949 0.060402381,4.0063298 0.060402381,4.60319444 L0.060402381,18.4171357 C0.060402381,18.7161196 0.159093592,18.9709731 0.355953839,19.1822477 C0.552814085,19.3935224 0.790926213,19.4983322 1.06924587,19.4983322 L21.9285994,19.4983322 C22.486283,19.4983322 22.937965,19.0151036 22.937965,18.4171357 L22.937965,4.60319444 C22.937965,4.30421049 22.839796,4.04990864 22.6424136,3.838634 C22.4455533,3.62735937 22.2079634,3.52254949 21.9285994,3.52254949 L21.9285994,3.52254949 Z M1.62640737,17.8434395 L21.3714379,17.8434395 L21.3714379,5.17744222 L1.62640737,5.17744222 L1.62640737,17.8434395 Z" id="Fill-1" fill="#F76260"></path>
                    <g id="Group-5" transform="translate(7.119048, 9.832104)">
                        <mask id="mask-2" fill="white">
                            <use xlink:href="#path-1"></use>
                        </mask>
                        <g id="Clip-4"></g>
                        <polygon id="Fill-3" fill="#F76260" mask="url(#mask-2)" points="-1.25788095 4.63811268 10.0373095 4.63811268 10.0373095 -1.60579758 -1.25788095 -1.60579758"></polygon>
                    </g>
                    <g id="Group-8" transform="translate(10.404762, 7.073949)">
                        <mask id="mask-4" fill="white">
                            <use xlink:href="#path-3"></use>
                        </mask>
                        <g id="Clip-7"></g>
                        <polygon id="Fill-6" fill="#F76260" mask="url(#mask-4)" points="-1.99552381 9.96355747 4.20297619 9.96355747 4.20297619 -1.41438165 -1.99552381 -1.41438165"></polygon>
                    </g>
                    <path d="M6.53347857,3.55327534 L6.53347857,2.94979112 C6.53347857,1.43832243 7.82093095,0.212598552 9.40847857,0.212598552 L13.6087167,0.212598552 C15.1968119,0.212598552 16.4837167,1.43832243 16.4837167,2.94979112 L16.4837167,3.55327534" id="Stroke-9" stroke="#F76260" stroke-width="1.5"></path>
                </g>
            </g>
        </g>
    </g>
</svg>