<svg width="19" height="21" viewBox="0 0 19 21" xmlns="http://www.w3.org/2000/svg"><path d="M16.046 3.5c.103.29.378.5.704.5.326 0 .6-.21.704-.5h.046v-2A1.5 1.5 0 0 0 16 0H2A1.5 1.5 0 0 0 .5 1.5v18A1.5 1.5 0 0 0 2 21h14a1.5 1.5 0 0 0 1.5-1.5v-6h-.046a.747.747 0 0 0-1.408 0H16V19a.5.5 0 0 1-.5.5h-13A.5.5 0 0 1 2 19V2a.5.5 0 0 1 .5-.5h13a.5.5 0 0 1 .5.5v1.5h.046zm-2.546 2h-9A.5.5 0 0 0 4 6v.5a.5.5 0 0 0 .5.5h9a.5.5 0 0 0 .5-.5V6a.5.5 0 0 0-.5-.5zM12 10H4.5a.5.5 0 0 0-.5.5v.5a.5.5 0 0 0 .5.5H12a.5.5 0 0 0 .5-.5v-.5a.5.5 0 0 0-.5-.5zm-2 4.5H4.5a.5.5 0 0 0-.5.5v.5a.5.5 0 0 0 .5.5H10a.5.5 0 0 0 .5-.5V15a.5.5 0 0 0-.5-.5zm8.197-9.235l-.463-.214a.51.51 0 0 0-.678.25l-4.502 9.751a.512.512 0 0 0 .249.679l.464.215a.51.51 0 0 0 .678-.25l4.501-9.75a.513.513 0 0 0-.249-.68zm-6.26 10.732l-.441 2.265.518.235 1.479-1.796-1.496-.678-.06-.026z" fill-rule="evenodd"/></svg>