<svg width="21" height="22" viewBox="0 0 21 22" xmlns="http://www.w3.org/2000/svg"><path d="M20 9h-2V1.5a1 1 0 0 0-1-1H1a1 1 0 0 0-1 1V12a1 1 0 0 0 1 1h2v7.5a1 1 0 0 0 1 1h16a1 1 0 0 0 1-1V10a1 1 0 0 0-1-1zm-1 11H5a.5.5 0 0 1-.5-.5V11a.5.5 0 0 1 .5-.5h4.5c.291-.15.5-.424.5-.75a.748.748 0 0 0-.5-.705L4 9a1 1 0 0 0-1 1v1H2a.5.5 0 0 1-.5-.5v-8A.5.5 0 0 1 2 2h14a.5.5 0 0 1 .5.5V9H14c-.291.149-.5.423-.5.75 0 .326.209.6.5.704l5 .046a.5.5 0 0 1 .5.5v8.5a.5.5 0 0 1-.5.5zm-5.4-4.147v.643h.87c-.05.551-.369.847-.935.847-.776 0-1.068-.66-1.068-1.314 0-.687.291-1.347 1.068-1.347.412 0 .725.22.83.66h.825c-.088-.897-.852-1.386-1.655-1.386-1.21 0-1.932.907-1.932 2.074 0 1.133.721 2.04 1.932 2.04.379 0 .77-.142 1.077-.539l.089.446h.55v-2.123H13.6v-.001zm-2.805-1.727h-.698L8.425 16.37v.715h1.628v.891h.742v-.891h.512v-.643h-.512v-2.316zm-.742 2.316H9.041l.996-1.337h.016v1.337zM9.237 5.36A2.434 2.434 0 0 0 9 5.273a.529.529 0 0 0-.5.519c0 .276.341.443.5.545 1.757.697 3.039 2.363 3.039 4.368v.185c-.039-.032-.81-.588-.81-.588a.54.54 0 0 0-.76.098.544.544 0 0 0 .099.763s1.59 1.255 1.817 1.292c.275.045.576-.21.576-.486 0-.015.039-.817.039-1.219a5.747 5.747 0 0 0-3.763-5.39z" fill-rule="evenodd"/></svg>