<svg width="20" height="22" viewBox="0 0 20 22" xmlns="http://www.w3.org/2000/svg"><path d="M5.469.938h-.5a.5.5 0 0 0-.5.5v3.5a.5.5 0 0 0 .5.5h.5a.5.5 0 0 0 .5-.5v-3.5a.5.5 0 0 0-.5-.5zm9.5 0h-.5a.5.5 0 0 0-.5.5v3.5a.5.5 0 0 0 .5.5h.5a.5.5 0 0 0 .5-.5v-3.5a.5.5 0 0 0-.5-.5zM13 2.714H7v1.5h6v-1.5zm5 0h-1.5v1.5h1a.5.5 0 0 1 .5.5v2.5H2v-2.5a.5.5 0 0 1 .5-.5h1v-1.5H2a1.5 1.5 0 0 0-1.5 1.5v16a1.5 1.5 0 0 0 1.5 1.5h16a1.5 1.5 0 0 0 1.5-1.5v-16a1.5 1.5 0 0 0-1.5-1.5zm0 17a.5.5 0 0 1-.5.5h-15a.5.5 0 0 1-.5-.5v-11h16v11zm-5.238-8.684l-3.138 4.73-2.303-2.32a.775.775 0 0 0-1.09-.01.762.762 0 0 0-.01 1.083l2.948 2.969c.021.021.05.03.073.049.014.013.021.032.037.044a.631.631 0 0 0 .641.097.75.75 0 0 0 .34-.181c.123-.12 3.617-5.57 3.617-5.57.223-.34.154-.816-.154-1.063-.308-.246-.738-.17-.96.172z" fill-rule="evenodd"/></svg>