<svg width="50" height="46" viewBox="0 0 50 46" version="1.1" xmlns="http://www.w3.org/2000/svg"><g fill="#666" stroke="none" stroke-width="1" fill-rule="evenodd"><path d="M35.447 32.932V2.589A2.506 2.506 0 0 0 32.94.09H2.506A2.504 2.504 0 0 0 0 2.59v30.342c0 1.378 1.123 2.5 2.506 2.5H32.94a2.506 2.506 0 0 0 2.507-2.5zm-2.538-2.218a2.194 2.194 0 0 1-2.194 2.188H4.732a2.194 2.194 0 0 1-2.194-2.188V4.807c0-1.205.985-2.185 2.194-2.185h25.983c1.209 0 2.194.98 2.194 2.185v25.907z" data-id="t1"/><path d="M47.407 10.12h-10.08V13.363h7.856c.817 0 1.476.66 1.476 1.472v25.906c0 .81-.66 1.471-1.476 1.471H19.2c-.813 0-1.477-.66-1.477-1.47v-2.99H14.47v5.206c0 1.379 1.124 2.501 2.505 2.501h30.433a2.507 2.507 0 0 0 2.507-2.5V12.617a2.505 2.505 0 0 0-2.507-2.499z" data-id="t2"/></g></svg>