<?xml version="1.0" encoding="UTF-8"?>
<svg width="50px" height="46px" viewBox="0 0 50 46" version="1.1" xmlns="http://www.w3.org/2000/svg" xmlns:xlink="http://www.w3.org/1999/xlink">
    <!-- Generator: Sketch 41.2 (35397) - http://www.bohemiancoding.com/sketch -->
    <title>翻转的icon</title>
    <desc>Created with Sketch.</desc>
    <defs></defs>
    <g id="微信小程序" stroke="none" stroke-width="1" fill="none" fill-rule="evenodd">
        <g id="首屏" transform="translate(-670.000000, -1261.000000)" fill="#666666">
            <g id="Group-3" transform="translate(0.000000, 982.000000)">
                <g id="底部-bar">
                    <g id="icon-翻转" transform="translate(670.000000, 279.000000)">
                        <path d="M35.4469345,32.9316787 L35.4469345,2.58945466 C35.4469345,1.21099084 34.3221987,0.0904290813 32.9396406,0.0904290813 L2.5064482,0.0904290813 C1.12389006,0.0904290813 0,1.21014768 0,2.58945466 L0,32.9316787 C0,34.3101425 1.1230444,35.4315474 2.5064482,35.4315474 L32.9396406,35.4315474 C34.3221987,35.4315474 35.4469345,34.3109857 35.4469345,32.9316787 L35.4469345,32.9316787 Z M32.9086681,30.7144799 C32.9086681,31.9198848 31.9239958,32.9016411 30.7150106,32.9016411 L4.73192389,32.9016411 C3.52293869,32.9016411 2.53826638,31.9198848 2.53826638,30.7144799 L2.53826638,4.80749664 C2.53826638,3.60209174 3.52293869,2.62202178 4.73192389,2.62202178 L30.7150106,2.62202178 C31.9239958,2.62202178 32.9086681,3.60209174 32.9086681,4.80749664 L32.9086681,30.7144799 L32.9086681,30.7144799 Z" data-id="t1" id="Shape"></path>
                        <path d="M47.4069767,10.1190985 L37.3270613,10.1190985 L37.3270613,10.5019993 L37.3270613,10.8318863 L37.3270613,13.3643221 L45.1832981,13.3643221 C45.9995772,13.3643221 46.6586681,14.0239907 46.6586681,14.8361661 L46.6586681,40.7423062 C46.6586681,41.5527952 45.9995772,42.213307 45.1832981,42.213307 L19.19926,42.213307 C18.385518,42.213307 17.7221987,41.5527952 17.7221987,40.7423062 L17.7221987,37.7531929 L17.3381607,37.7531929 L17.0072939,37.7531929 L14.4690275,37.7531929 L14.4690275,42.9593996 C14.4690275,44.3378634 15.5929175,45.4601115 16.9737844,45.4601115 L47.4069767,45.4601115 C48.7895349,45.4601115 49.9142706,44.3378634 49.9142706,42.9593996 L49.9142706,12.6181241 C49.9142706,11.2388171 48.7895349,10.1190985 47.4069767,10.1190985 L47.4069767,10.1190985 Z" data-id="t2" id="Shape"></path>
                    </g>
                </g>
            </g>
        </g>
    </g>
</svg>